<?xml version="1.0" encoding="UTF-8"?>
<svg width="236px" height="236px" viewBox="0 0 236 236" version="1.1" xmlns="http://www.w3.org/2000/svg" xmlns:xlink="http://www.w3.org/1999/xlink">
    <!-- Generator: Sketch 43.2 (39069) - http://www.bohemiancoding.com/sketch -->
    <title>Page 1</title>
    <desc>Created with Sketch.</desc>
    <defs>
        <polygon id="path-1" points="0.000463211579 0 236.001 0 236.001 235.999537 0.000463211579 235.999537"></polygon>
    </defs>
    <g id="Page-1" stroke="none" stroke-width="1" fill="none" fill-rule="evenodd">
        <g>
            <mask id="mask-2" fill="white">
                <use xlink:href="#path-1"></use>
            </mask>
            <g id="Clip-2"></g>
            <path d="M73.7144,85.4995 C73.7144,77.4655 67.2014,70.9525 59.1674,70.9525 C51.1334,70.9525 44.6214,77.4655 44.6214,85.4995 C44.6214,93.5335 51.1334,100.0465 59.1674,100.0465 C67.2014,100.0465 73.7144,93.5335 73.7144,85.4995 M169.0474,81.4265 C169.0474,73.3925 162.5344,66.8795 154.5004,66.8795 C146.4664,66.8795 139.9544,73.3925 139.9544,81.4265 C139.9544,89.4605 146.4664,95.9735 154.5004,95.9735 C162.5344,95.9735 169.0474,89.4605 169.0474,81.4265 M165.0064,176.7835 C165.0064,168.7495 158.4934,162.2365 150.4594,162.2365 C142.4254,162.2365 135.9134,168.7495 135.9134,176.7835 C135.9134,184.8175 142.4254,191.3305 150.4594,191.3305 C158.4934,191.3305 165.0064,184.8175 165.0064,176.7835 M86.9584,172.6385 C86.9584,159.4505 76.2674,148.7575 63.0774,148.7575 C49.8894,148.7575 39.1974,159.4505 39.1974,172.6385 C39.1974,185.8275 49.8894,196.5195 63.0774,196.5195 C76.2674,196.5195 86.9584,185.8275 86.9584,172.6385 M139.8534,104.5905 L95.7314,148.7125 C100.3034,154.8765 102.9024,162.0565 103.5334,169.3765 L123.9184,170.0195 C125.4354,164.0465 128.9624,158.5525 134.3274,154.6425 C145.2534,146.6815 160.0964,147.9845 169.5144,157.0625 L179.4074,149.8555 C178.6634,147.5955 178.4154,145.1345 178.8074,142.6265 C180.1254,134.1665 188.0594,128.3865 196.5204,129.7165 C204.9854,131.0485 210.7744,138.9885 209.4554,147.4475 C208.1324,155.9065 200.2014,161.6875 191.7384,160.3555 C189.2284,159.9605 186.9614,158.9725 185.0374,157.5725 L175.1434,164.7815 C176.9434,168.4495 177.8604,172.3865 177.9364,176.3125 L201.8234,180.0705 C204.7724,174.2305 211.2364,170.6875 218.0544,171.7575 C226.5174,173.0895 232.3074,181.0295 230.9854,189.4925 C229.6644,197.9515 221.7354,203.7305 213.2734,202.3985 C206.4574,201.3265 201.3824,195.9665 200.3524,189.5015 L176.4654,185.7445 C175.1974,189.4575 173.1254,192.9215 170.2934,195.8595 L177.5154,205.7595 C179.7764,205.0195 182.2354,204.7755 184.7484,205.1695 C193.2074,206.5015 198.9984,214.4415 197.6814,222.9005 C196.3564,231.3655 188.4304,237.1405 179.9664,235.8085 C171.5024,234.4765 165.7114,226.5395 167.0324,218.0785 C167.4254,215.5685 168.4094,213.3025 169.8064,211.3805 L162.5824,201.4765 C150.8504,207.2285 136.3224,203.9085 128.3464,192.9765 C125.8714,189.5825 124.2914,185.8125 123.5554,181.9435 L102.8134,181.2915 C101.2554,188.7265 97.6114,195.8005 91.8614,201.5505 C76.0724,217.3395 50.2984,217.3205 34.4904,201.5095 C18.6784,185.7015 18.6624,159.9255 34.4504,144.1385 C40.2004,138.3885 47.2764,134.7465 54.7094,133.1875 L54.0574,112.4455 C50.1904,111.7075 46.4184,110.1295 43.0254,107.6545 C32.0924,99.6805 28.7724,85.1505 34.5244,73.4185 L24.6184,66.1955 C22.6964,67.5905 20.4314,68.5745 17.9204,68.9675 C9.4594,70.2875 1.5224,64.4965 0.1914,56.0335 C-1.1406,47.5745 4.6384,39.6435 13.0984,38.3225 C21.5594,37.0025 29.4964,42.7915 30.8314,51.2525 C31.2274,53.7665 30.9834,56.2275 30.2404,58.4845 L40.1434,65.7075 C43.0814,62.8735 46.5464,60.8035 50.2604,59.5355 L46.5024,35.6505 C40.0354,34.6215 34.6754,29.5455 33.6024,22.7275 C32.2704,14.2665 38.0514,6.3365 46.5104,5.0165 C54.9724,3.6935 62.9104,9.4845 64.2424,17.9455 C65.3134,24.7625 61.7694,31.2285 55.9304,34.1805 L59.6884,58.0645 C63.6134,58.1415 67.5494,59.0575 71.2164,60.8575 L78.4274,50.9635 C77.0274,49.0395 76.0394,46.7715 75.6444,44.2625 C74.3124,35.7995 80.0924,27.8675 88.5534,26.5455 C97.0124,25.2275 104.9524,31.0165 106.2844,39.4785 C107.6174,47.9435 101.8344,55.8755 93.3754,57.1935 C90.8644,57.5865 88.4044,57.3385 86.1454,56.5945 L78.9354,66.4865 C88.0154,75.9045 89.3184,90.7485 81.3604,101.6705 C77.4484,107.0395 71.9534,110.5645 65.9814,112.0825 L66.6234,132.4665 C73.9434,133.0995 81.1234,135.6955 87.2874,140.2695 L131.4104,96.1465 C124.6684,85.5355 125.9054,71.2585 135.1394,62.0255 C139.2654,57.8985 144.4014,55.3775 149.7654,54.4415 L149.7494,30.2345 C147.4834,29.5045 145.3474,28.2565 143.5524,26.4595 C137.5084,20.4165 137.4994,10.5615 143.5354,4.5235 C149.5724,-1.5135 159.4294,-1.5075 165.4734,4.5375 C171.5204,10.5845 171.5254,20.4395 165.4864,26.4785 C163.6934,28.2705 161.5614,29.5185 159.2924,30.2445 L159.3114,54.4475 C163.1824,55.1275 166.9314,56.6355 170.2734,58.9755 L188.1984,41.0475 C185.2274,35.2175 186.1624,27.8875 191.0224,23.0275 C197.0604,16.9905 206.9134,16.9965 212.9594,23.0435 C219.0054,29.0885 219.0094,38.9435 212.9764,44.9775 C208.1114,49.8405 200.7814,50.7755 194.9514,47.8035 L177.0274,65.7275 C179.3654,69.0705 180.8754,72.8185 181.5544,76.6895 L205.7584,76.7095 C206.4854,74.4415 207.7324,72.3075 209.5254,70.5145 C215.5634,64.4755 225.4184,64.4805 231.4634,70.5275 C237.5084,76.5725 237.5144,86.4285 231.4774,92.4675 C225.4414,98.5025 215.5854,98.4925 209.5414,92.4475 C207.7464,90.6525 206.4964,88.5185 205.7664,86.2525 L181.5614,86.2345 C180.6264,91.5985 178.1034,96.7365 173.9764,100.8635 C164.7414,110.0945 150.4634,111.3305 139.8534,104.5905" id="Fill-1" fill="#D5DEE4" mask="url(#mask-2)"></path>
        </g>
    </g>
</svg>